<?xml version="1.0" encoding="UTF-8"?><svg id="Layer_2" xmlns="http://www.w3.org/2000/svg" xmlns:xlink="http://www.w3.org/1999/xlink" viewBox="0 0 396.09 67.32"><defs><style>.cls-1{fill:none;}.cls-2{fill:#1c3c2c;}.cls-3{fill:#c49b2e;}.cls-4{clip-path:url(#clippath);}</style><clipPath id="clippath"><rect class="cls-1" width="89.03" height="67.32"/></clipPath></defs><g id="Layer_1-2"><g class="cls-4"><rect class="cls-3" x="-1.24" y="3.96" width="47.18" height="15.61" transform="translate(-1.77 19.25) rotate(-45)"/><rect class="cls-3" x="14.54" y="32.57" width="15.61" height="47.18" transform="translate(-33.16 32.25) rotate(-45)"/><rect class="cls-3" x="43.16" y="48.35" width="47.18" height="15.61" transform="translate(-20.16 63.65) rotate(-45)"/><rect class="cls-3" x="58.94" y="-11.83" width="15.61" height="47.18" transform="translate(11.23 50.64) rotate(-45)"/></g><path class="cls-2" d="M104.47,21.53v-7.68h33.07v7.68h-11.87v31.45h-9.32v-31.45h-11.88Z"/><path class="cls-2" d="M145.76,52.98h-10.17l13.2-39.13h12.59l13.2,39.13h-10.16l-9.19-29.27h-.31l-9.17,29.27ZM144.4,37.58h21.25v7.18h-21.25v-7.18Z"/><path class="cls-2" d="M178.81,52.98V13.85h16.16c2.93,0,5.46.53,7.59,1.58,2.13,1.05,3.78,2.55,4.94,4.51,1.16,1.96,1.74,4.27,1.74,6.95s-.59,5.02-1.78,6.91-2.87,3.33-5.04,4.32c-2.18.99-4.76,1.48-7.74,1.48h-10.22v-7.45h8.46c1.43,0,2.62-.19,3.58-.56.96-.38,1.69-.95,2.19-1.72.5-.77.75-1.76.75-2.97s-.25-2.21-.75-3.01c-.5-.8-1.23-1.39-2.2-1.8s-2.16-.6-3.57-.6h-4.66v31.51h-9.46ZM200.84,35.09l9.74,17.88h-10.32l-9.55-17.88h10.13Z"/><path class="cls-2" d="M213.15,21.53v-7.68h33.07v7.68h-11.87v31.45h-9.32v-31.45h-11.88Z"/><path class="cls-2" d="M274.54,13.85h9.44v25.24c0,2.92-.69,5.46-2.08,7.61-1.39,2.16-3.33,3.83-5.81,5.01-2.48,1.18-5.37,1.77-8.66,1.77s-6.23-.59-8.71-1.77c-2.48-1.18-4.41-2.85-5.79-5.01-1.38-2.16-2.06-4.7-2.06-7.61V13.85h9.46v24.42c0,1.35.3,2.55.89,3.61.59,1.06,1.42,1.89,2.49,2.48,1.07.6,2.31.9,3.73.9s2.65-.3,3.72-.9c1.06-.6,1.89-1.43,2.49-2.48.6-1.06.9-2.26.9-3.61V13.85Z"/><path class="cls-3" d="M289.9,52.98V13.85h16.16c2.93,0,5.46.57,7.59,1.71,2.13,1.14,3.78,2.73,4.94,4.76s1.74,4.39,1.74,7.08-.59,5.06-1.77,7.08c-1.18,2.02-2.86,3.58-5.04,4.69-2.18,1.11-4.76,1.66-7.76,1.66h-9.97v-7.45h8.22c1.43,0,2.62-.25,3.58-.75.96-.5,1.69-1.19,2.19-2.09.5-.9.75-1.95.75-3.14s-.25-2.26-.75-3.14c-.5-.89-1.23-1.57-2.2-2.05-.97-.48-2.16-.73-3.57-.73h-4.66v31.51h-9.46Z"/><path class="cls-3" d="M328.74,52.98h-10.17l13.2-39.13h12.59l13.2,39.13h-10.16l-9.19-29.27h-.31l-9.17,29.27ZM327.39,37.58h21.25v7.18h-21.25v-7.18Z"/><path class="cls-3" d="M361.8,52.98V13.85h9.46v16.55h.52l12.94-16.55h11.14l-13.87,17.46,14.12,21.67h-11.31l-9.75-15.38-3.78,4.78v10.6h-9.46Z"/></g></svg>